<?xml version="1.0" standalone="no"?><!DOCTYPE svg PUBLIC "-//W3C//DTD SVG 1.1//EN" "http://www.w3.org/Graphics/SVG/1.1/DTD/svg11.dtd"><svg class="icon" width="200px" height="199.80px" viewBox="0 0 1025 1024" version="1.1" xmlns="http://www.w3.org/2000/svg"><path fill="#108ee9" d="M146.932944 870.984896C239.815872 965.431611 369.06824 1024 512 1024 658.953936 1024 791.447776 962.088931 884.821504 862.926803 971.440288 772.464982 1024.167088 648.192579 1024.167088 512.083547 1024.167088 228.730651 795.436448 0 512.083552 0 229.230208 0 0 229.230208 0 512 0 652.05305 55.760208 779.504954 146.79728 871.679992 146.842224 871.448074 146.88744 871.216376 146.932944 870.984896L146.932944 870.984896 146.932944 870.984896 146.932944 870.984896ZM867.545888 834.475594C779.73136 931.237411 652.961616 992 512 992 371.256704 992 244.661344 931.425477 156.8624 834.924912 211.500736 683.217683 401.07832 642.949342 512.083552 642.949342 623.252704 642.949342 813.22648 682.351654 867.545888 834.475594L867.545888 834.475594 867.545888 834.475594 867.545888 834.475594ZM512.083552 126.313941C644.087312 126.313941 752.193824 233.282504 752.193824 366.424227 752.193824 498.427986 645.225264 606.534512 512.083552 606.534512 378.941824 606.534512 271.973264 499.565949 271.973264 366.424227 271.973264 234.420469 380.079792 126.313941 512.083552 126.313941L512.083552 126.313941 512.083552 126.313941 512.083552 126.313941Z" /></svg>